<svg width="26" height="25" viewBox="0 0 26 25" fill="none" xmlns="http://www.w3.org/2000/svg">
<path d="M0.200195 3.9998C0.200195 2.23249 1.63288 0.799805 3.40019 0.799805H14.6002C16.3675 0.799805 17.8002 2.23249 17.8002 3.9998V10.3998C17.8002 12.1671 16.3675 13.5998 14.6002 13.5998H11.4002L6.60019 18.3998V13.5998H3.40019C1.63288 13.5998 0.200195 12.1671 0.200195 10.3998V3.9998Z" fill="white"/>
<path d="M21.0002 7.1998V12.7998C21.0002 15.0089 19.2093 16.7998 17.0002 16.7998H12.7257L9.89896 19.6265C10.3467 19.8648 10.8577 19.9998 11.4002 19.9998H14.6002L19.4002 24.7998V19.9998H22.6002C24.3675 19.9998 25.8002 18.5671 25.8002 16.7998V10.3998C25.8002 8.63249 24.3675 7.1998 22.6002 7.1998H21.0002Z" fill="white"/>
</svg>
