<svg width="32" height="32" viewBox="0 0 32 32" fill="none" xmlns="http://www.w3.org/2000/svg">
<path fill-rule="evenodd" clip-rule="evenodd" d="M17.5 11C17.5 11.8284 16.8284 12.5 16 12.5C15.1716 12.5 14.5 11.8284 14.5 11C14.5 10.1716 15.1716 9.5 16 9.5C16.8284 9.5 17.5 10.1716 17.5 11ZM17.5 16C17.5 16.8284 16.8284 17.5 16 17.5C15.1716 17.5 14.5 16.8284 14.5 16C14.5 15.1716 15.1716 14.5 16 14.5C16.8284 14.5 17.5 15.1716 17.5 16ZM16 22.5C16.8284 22.5 17.5 21.8284 17.5 21C17.5 20.1716 16.8284 19.5 16 19.5C15.1716 19.5 14.5 20.1716 14.5 21C14.5 21.8284 15.1716 22.5 16 22.5Z" fill="white"/>
</svg>
