<svg width="32" height="32" viewBox="0 0 32 32" fill="none" xmlns="http://www.w3.org/2000/svg">
<path d="M20.9998 13.6014V10.8C20.9998 10.5878 20.9155 10.3843 20.7654 10.2343C20.6154 10.0843 20.412 10 20.1998 10H17.3999" stroke="white" stroke-width="1.5" stroke-linecap="round" stroke-linejoin="round"/>
<path d="M17.3999 21.9996H20.1998C20.412 21.9996 20.6154 21.9153 20.7654 21.7653C20.9155 21.6153 20.9998 21.4118 20.9998 21.1996V18.4014" stroke="white" stroke-width="1.5" stroke-linecap="round" stroke-linejoin="round"/>
<path d="M9 18.4014V21.2012C9 21.4134 9.08428 21.6169 9.2343 21.7669C9.38433 21.9169 9.5878 22.0012 9.79997 22.0012H12.5998" stroke="white" stroke-width="1.5" stroke-linecap="round" stroke-linejoin="round"/>
<path d="M12.5998 10H9.79997C9.5878 10 9.38433 10.0843 9.2343 10.2343C9.08428 10.3843 9 10.5878 9 10.8V13.6014" stroke="white" stroke-width="1.5" stroke-linecap="round" stroke-linejoin="round"/>
</svg>
