<svg width="24" height="24" viewBox="0 0 24 24" fill="none" xmlns="http://www.w3.org/2000/svg">
<path d="M20.9368 13.0737C21.3433 12.8704 21.6001 12.4549 21.6001 12.0004C21.6001 11.5459 21.3433 11.1304 20.9368 10.9271L4.13675 2.52709C3.71111 2.31427 3.19993 2.37308 2.83373 2.67699C2.46754 2.98091 2.31553 3.4725 2.44627 3.93007L4.16055 9.93006C4.30774 10.4452 4.7786 10.8004 5.31438 10.8004L10.8001 10.8004C11.4628 10.8004 12.0001 11.3376 12.0001 12.0004C12.0001 12.6631 11.4628 13.2004 10.8001 13.2004L5.31438 13.2004C4.77861 13.2004 4.30774 13.5556 4.16056 14.0707L2.44627 20.0707C2.31553 20.5283 2.46754 21.0199 2.83373 21.3238C3.19993 21.6277 3.71111 21.6865 4.13675 21.4737L20.9368 13.0737Z" fill="url(#paint0_linear_191_1041)"/>
<defs>
<linearGradient id="paint0_linear_191_1041" x1="21.6001" y1="2.40039" x2="2.40007" y2="21.6004" gradientUnits="userSpaceOnUse">
<stop stop-color="#43F6AB"/>
<stop offset="1" stop-color="#9FFFFF"/>
</linearGradient>
</defs>
</svg>
