<svg width="12" height="12" viewBox="0 0 12 12" fill="none" xmlns="http://www.w3.org/2000/svg">
<path d="M0.666748 1.33332C0.666748 0.965133 0.965225 0.666656 1.33341 0.666656H4.00008C4.36827 0.666656 4.66675 0.965133 4.66675 1.33332V3.99999C4.66675 4.36818 4.36827 4.66666 4.00008 4.66666H1.33341C0.965225 4.66666 0.666748 4.36818 0.666748 3.99999V1.33332Z" stroke="#463075" stroke-linecap="round" stroke-linejoin="round"/>
<path d="M0.666748 7.99999C0.666748 7.6318 0.965225 7.33332 1.33341 7.33332H4.00008C4.36827 7.33332 4.66675 7.6318 4.66675 7.99999V10.6667C4.66675 11.0348 4.36827 11.3333 4.00008 11.3333H1.33341C0.965225 11.3333 0.666748 11.0348 0.666748 10.6667V7.99999Z" stroke="#463075" stroke-linecap="round" stroke-linejoin="round"/>
<path d="M7.33341 1.33332C7.33341 0.965133 7.63189 0.666656 8.00008 0.666656H10.6667C11.0349 0.666656 11.3334 0.965133 11.3334 1.33332V3.99999C11.3334 4.36818 11.0349 4.66666 10.6667 4.66666H8.00008C7.63189 4.66666 7.33341 4.36818 7.33341 3.99999V1.33332Z" stroke="#463075" stroke-linecap="round" stroke-linejoin="round"/>
<path d="M7.33341 7.99999C7.33341 7.6318 7.63189 7.33332 8.00008 7.33332H10.6667C11.0349 7.33332 11.3334 7.6318 11.3334 7.99999V10.6667C11.3334 11.0348 11.0349 11.3333 10.6667 11.3333H8.00008C7.63189 11.3333 7.33341 11.0348 7.33341 10.6667V7.99999Z" stroke="#463075" stroke-linecap="round" stroke-linejoin="round"/>
</svg>
