<svg width="69" height="12" viewBox="0 0 69 12" fill="none" xmlns="http://www.w3.org/2000/svg">
<g clip-path="url(#clip0_2118_7449)">
<path d="M5.47499 11.1109C7.3397 11.1109 8.81071 10.3271 9.548 8.96343L6.946 7.17388C6.48072 8.0436 5.9868 8.43731 5.27814 8.43731C4.27241 8.43731 3.73197 7.57832 3.73197 6.03215C3.73197 4.48598 4.27241 3.627 5.27814 3.627C5.99396 3.627 6.48072 4.01712 6.946 4.88684L9.548 3.09729C8.81071 1.71576 7.3397 0.949829 5.47499 0.949829C2.52939 0.949829 0.228027 3.14382 0.228027 6.06078C0.228027 8.97775 2.52939 11.1109 5.47499 11.1109Z" fill="#43F6AB"/>
<path d="M16.3055 10.9606H19.5983V1.03931H16.3055V4.68999H13.8968V1.03931H10.604V10.9606H13.8968V7.21683H16.3055V10.9606Z" fill="#43F6AB"/>
<path d="M20.2422 10.9606H23.535L23.9859 9.42514H26.7204L27.157 10.9606H30.5822L27.0425 1.03931H23.8213L20.2422 10.9606ZM25.3639 4.57188L26.1155 7.12736H24.6123L25.3639 4.57188Z" fill="#43F6AB"/>
<path d="M32.5974 10.9606H35.8759V3.56262H38.4958V1.05725H29.9668V3.56262H32.5974V10.9606Z" fill="#43F6AB"/>
<path d="M39.6841 10.9606H42.9769V7.56047H46.7492V5.03721H42.9769V3.56262H47.1107V1.05725H39.6841V10.9606Z" fill="#43F6AB"/>
<path d="M46.8242 10.9606H50.1134L50.5644 9.42514H53.3024L53.739 10.9606H57.1642L53.603 1.03931H50.3818L46.8242 10.9606ZM51.9352 4.57188L52.6868 7.12736H51.1836L51.9352 4.57188Z" fill="#43F6AB"/>
<path d="M68.0732 10.9606L66.4125 8.99928C67.0263 8.12003 67.3526 7.07225 67.3467 5.99999C67.3365 5.06207 67.0663 4.14535 66.5661 3.3519C66.0659 2.55844 65.3552 1.91938 64.5133 1.50584C63.6714 1.0923 62.7313 0.920517 61.7976 1.00961C60.8638 1.0987 59.9731 1.44518 59.2246 2.01046C58.4761 2.57575 57.8992 3.33767 57.558 4.21141C57.2169 5.08514 57.1249 6.03642 57.2923 6.95933C57.4598 7.88224 57.88 8.74059 58.5063 9.43881C59.1327 10.137 59.9405 10.6477 60.8398 10.9141C61.7874 11.1468 62.7771 11.1468 63.7246 10.9141C64.0422 10.8251 64.3502 10.7052 64.6444 10.5562L65.0023 10.9749L68.0732 10.9606ZM62.2965 8.40514C61.2443 8.40514 60.7325 7.53184 60.7325 5.99999C60.7325 4.46813 61.2443 3.59483 62.2965 3.59483C63.3488 3.59483 63.8606 4.46456 63.8606 5.99999C63.8723 6.45976 63.807 6.91825 63.6673 7.35647L62.046 7.38152L62.8334 8.31567C62.6613 8.37776 62.4794 8.40807 62.2965 8.40514Z" fill="#43F6AB"/>
</g>
<defs>
<clipPath id="clip0_2118_7449">
<rect width="67.8454" height="10.2219" fill="white" transform="translate(0.228027 0.889038)"/>
</clipPath>
</defs>
</svg>
